<svg xmlns="http://www.w3.org/2000/svg" viewBox="0 0 512.43 64.45"><defs><style>.cls-1{fill:#d3c06c;}.cls-2{fill:#fff;}</style></defs><title>gp_logo_white</title><g id="Vrstva_2" data-name="Vrstva 2"><g id="Vrstva_1-2" data-name="Vrstva 1"><path class="cls-1" d="M74.84,32.23a24.7,24.7,0,0,1,6.94-17.75A22.83,22.83,0,0,1,98.94,7.23a28.88,28.88,0,0,1,9,1.38,21.23,21.23,0,0,1,6,2.76l1.8,1.32L114,15a5.94,5.94,0,0,0-.65-.51c-.3-.21-1-.6-2-1.18a27.67,27.67,0,0,0-3.15-1.52,24.52,24.52,0,0,0-4.14-1.17,25.21,25.21,0,0,0-5.15-.52,19.78,19.78,0,0,0-15,6.35,22.22,22.22,0,0,0-6,15.82,22.47,22.47,0,0,0,5.84,15.82A19.16,19.16,0,0,0,98.53,54.4a20.91,20.91,0,0,0,10.33-2.83c1.26-.78,2.39-1.56,3.38-2.32a14.18,14.18,0,0,0,2.18-2l.69-.83V37.13h-8.64V34.37h11.61v22h-3V52.19l.07-2.07H115a8.73,8.73,0,0,1-.69.76c-.33.32-1,.9-2,1.72A20.27,20.27,0,0,1,109,54.78a23.05,23.05,0,0,1-4.63,1.69A23.17,23.17,0,0,1,81.64,50,24.94,24.94,0,0,1,74.84,32.23Z"/><path class="cls-1" d="M123.46,38.93a17.89,17.89,0,1,1,35.78,0,17.82,17.82,0,0,1-5.22,13,17.75,17.75,0,0,1-25.34,0A17.82,17.82,0,0,1,123.46,38.93Zm3,0a15.22,15.22,0,0,0,4.32,11,14.68,14.68,0,0,0,21.06,0,15.22,15.22,0,0,0,4.32-11,14.62,14.62,0,0,0-4.32-10.71,14.92,14.92,0,0,0-21.06,0A14.62,14.62,0,0,0,126.5,38.93Z"/><path class="cls-1" d="M165.65,49.43V8.06h2.9V48.53q0,5.38,4.08,5.39l1-.07v2.69a5.91,5.91,0,0,1-1.25.14,8,8,0,0,1-1.93-.24,8.76,8.76,0,0,1-2.18-.93,4.82,4.82,0,0,1-1.93-2.25A9.05,9.05,0,0,1,165.65,49.43Z"/><path class="cls-1" d="M180.12,52.26q-4-5-4-13.12T180.4,26a14.09,14.09,0,0,1,11.15-5,13,13,0,0,1,4.56.8,10.62,10.62,0,0,1,3.42,1.93,21,21,0,0,1,2.24,2.31,8.47,8.47,0,0,1,1.32,2l.41.76h.14a12.83,12.83,0,0,1-.28-2.84v-18h2.9V56.4h-2.9V52.05l.28-2.62h-.14c-.09.23-.22.52-.38.86a12.7,12.7,0,0,1-1.28,1.87,14.48,14.48,0,0,1-2.31,2.38A12.34,12.34,0,0,1,196,56.4a14.24,14.24,0,0,1-5,.83A13.31,13.31,0,0,1,180.12,52.26Zm-1-13.12q0,6.9,3.35,11.08a10.58,10.58,0,0,0,8.67,4.18,11.44,11.44,0,0,0,8.77-3.83q3.53-3.84,3.52-11.5a18.24,18.24,0,0,0-3.14-10.71,10.21,10.21,0,0,0-8.88-4.49A11.09,11.09,0,0,0,182.64,28Q179.13,32.09,179.12,39.14Z"/><path class="cls-1" d="M213,39.21q0-8.43,4.91-13.3A16.27,16.27,0,0,1,229.81,21q6.69,0,10.39,4.53a17.16,17.16,0,0,1,3.7,11.22l-.14,1.86h-27.7q0,7.26,4.25,11.5a14.3,14.3,0,0,0,10.53,4.25,15,15,0,0,0,5.63-1.07,12.59,12.59,0,0,0,3.84-2.18l1.24-1.1,1.59,2.42a18.76,18.76,0,0,1-1.56,1.34,19.78,19.78,0,0,1-4.21,2.11,17.22,17.22,0,0,1-6.53,1.31,17.36,17.36,0,0,1-17.82-18ZM216.27,36h24.59c-.19-4-1.31-7-3.39-9.12a10.49,10.49,0,0,0-7.73-3.1A13.16,13.16,0,0,0,220.93,27,14.2,14.2,0,0,0,216.27,36Z"/><path class="cls-1" d="M250.53,56.4V21.87h2.9V28l-.27,2.83h.13a15.71,15.71,0,0,1,5-6.53,14.5,14.5,0,0,1,9.6-3.21q6.35,0,8.87,3.42t2.52,10V56.4h-2.9V35.55c0-1.39,0-2.57-.14-3.56a16.14,16.14,0,0,0-.62-3.11,7.05,7.05,0,0,0-1.38-2.66,6.52,6.52,0,0,0-2.52-1.69,10.13,10.13,0,0,0-3.83-.66A13.76,13.76,0,0,0,259.2,27a14.69,14.69,0,0,0-5.21,7.9,17.24,17.24,0,0,0-.56,4.7V56.4Z"/><path class="cls-2" d="M292.18,56.4v-49h18.93a15.08,15.08,0,0,1,11.25,4.42,15.69,15.69,0,0,1,4.36,11.53A16.08,16.08,0,0,1,322.36,35a14.89,14.89,0,0,1-11.25,4.52h-10V56.4Zm8.91-24.65h8.36a7.94,7.94,0,0,0,6-2.28,8.54,8.54,0,0,0,2.18-6.15,8.3,8.3,0,0,0-2.18-6,7.83,7.83,0,0,0-5.9-2.25h-8.5Z"/><path class="cls-2" d="M331.22,56.4v-49H347q6.84,0,9.88,1.38a13.36,13.36,0,0,1,5.87,5.18,15.25,15.25,0,0,1,2.14,8.22,15.5,15.5,0,0,1-2.24,8.18,12.36,12.36,0,0,1-6.05,5.22v.13a11.57,11.57,0,0,1,1.66,2.42l10.09,18.3h-9.95l-9.74-18.3h-8.56V56.4Zm8.91-26h8a7.72,7.72,0,0,0,5.66-2,7.64,7.64,0,0,0,2.07-5.7c0-2.53-.66-4.43-2-5.7s-3.66-1.9-7-1.9h-6.77Z"/><path class="cls-2" d="M369.35,31.54a24,24,0,0,1,7.29-17.78,26.2,26.2,0,0,1,36.12,0A24.07,24.07,0,0,1,420,31.54a25.1,25.1,0,0,1-7.28,18.27,25.69,25.69,0,0,1-36.12,0A25.07,25.07,0,0,1,369.35,31.54Zm9.18,0a17.63,17.63,0,0,0,4.7,12.54,15.64,15.64,0,0,0,22.93,0,17.63,17.63,0,0,0,4.7-12.54,16.59,16.59,0,0,0-4.7-12,16,16,0,0,0-22.93,0A16.59,16.59,0,0,0,378.53,31.54Z"/><path class="cls-2" d="M426.32,56.4v-49H454.5V15H435.23V28.92h16.23v7.66H435.23V56.4Z"/><path class="cls-2" d="M459,56.4v-49h8.91v49Z"/><path class="cls-2" d="M487.43,56.4V15H471.34V7.37h41.09V15H496.34V56.4Z"/><path class="cls-1" d="M0,24.2V40.25a16.17,16.17,0,0,0,8.09,14l13.9,8a16.21,16.21,0,0,0,16.17,0l13.9-8a16.17,16.17,0,0,0,8.09-14v-16a16.17,16.17,0,0,0-8.09-14l-13.9-8A16.16,16.16,0,0,0,22,2.17l-13.9,8A16.17,16.17,0,0,0,0,24.2Z"/><path class="cls-2" d="M35.61,37.39h6.13v4.67A14,14,0,0,1,39,44.15a17,17,0,0,1-3.16,1.45,12.32,12.32,0,0,1-4.09.64,13.68,13.68,0,0,1-5.25-1,12.62,12.62,0,0,1-4.26-2.89,13.47,13.47,0,0,1-2.86-4.51,15.78,15.78,0,0,1-1-5.88,15.61,15.61,0,0,1,.89-5.33,12.56,12.56,0,0,1,2.62-4.37,12.25,12.25,0,0,1,4.3-2.95,15,15,0,0,1,5.93-1.09,14.66,14.66,0,0,1,4.35.6,22.79,22.79,0,0,1,3.34,1.32A17.09,17.09,0,0,1,42.7,22l3.6-5.39a17.38,17.38,0,0,0-3.76-2.52c-.63-.32-1.33-.63-2.11-.94a21.07,21.07,0,0,0-2.54-.82,25.83,25.83,0,0,0-3-.58,24.92,24.92,0,0,0-3.45-.22,22.28,22.28,0,0,0-5.66.71,19.92,19.92,0,0,0-5,2.05,20.18,20.18,0,0,0-4.14,3.2,19.51,19.51,0,0,0-3.15,4.15,20.76,20.76,0,0,0-2,4.95,21.65,21.65,0,0,0-.7,5.55,22.23,22.23,0,0,0,1.58,8.53,20,20,0,0,0,4.27,6.55,19.1,19.1,0,0,0,6.24,4.17,19.43,19.43,0,0,0,7.5,1.47,16.58,16.58,0,0,0,4.94-.67A21.1,21.1,0,0,0,39,50.75a14.57,14.57,0,0,0,3-2.14h.06V60l6.18-3.57V31.15H35.61Z"/></g></g></svg>